<?xml version="1.0" encoding="utf-8"?>
<!-- Generator: Adobe Illustrator 16.0.0, SVG Export Plug-In . SVG Version: 6.00 Build 0)  -->
<!DOCTYPE svg PUBLIC "-//W3C//DTD SVG 1.1//EN" "http://www.w3.org/Graphics/SVG/1.1/DTD/svg11.dtd">
<svg version="1.1" xmlns="http://www.w3.org/2000/svg" xmlns:xlink="http://www.w3.org/1999/xlink" x="0px" y="0px" width="150px"
	 height="150px" viewBox="0 0 150 150" style="enable-background:new 0 0 150 150;" xml:space="preserve">
<style type="text/css">
<![CDATA[
	.st0{fill:transparent;}
	.st1{fill:none;stroke:#000000;stroke-width:1.9337;stroke-miterlimit:10;stroke-dasharray:450;}
	.st0:hover{fill:#2E64FE}
	.st3{fill:transparent;}
]]>
</style>
<g id="colores">
	<path id="color1" class="st3" d="M73.3,146c36.7,0,34.4-15.6,34.4-15.6v-16.1h-35v-4.8h48.9c0,0,23.5,2.6,23.5-33.6
		c0-36.2-20.5-34.9-20.5-34.9h-12.3v16.8c0,0,0.7,20-20.2,20H57.4c0,0-19.5-0.3-19.5,18.4v31C37.9,127.2,34.9,146,73.3,146L73.3,146
		L73.3,146z M92.6,135.1c-3.5,0-6.3-2.7-6.3-6.1c0-3.4,2.8-6.1,6.3-6.1c3.5,0,6.3,2.7,6.3,6.1C98.9,132.4,96,135.1,92.6,135.1
		L92.6,135.1L92.6,135.1z"/>
	<path id="color2" class="st0" d="M75.5,7.7C38.8,7.4,41,22.6,41,22.6l-0.1,15.7l34.9,0.3l0,4.7L27,42.9c0,0-23.4-2.7-23.7,32.6
		c-0.3,35.2,20.2,34.2,20.2,34.2l12.3,0.1l0.1-16.4c0,0-0.5-19.5,20.3-19.4l34.6,0.3c0,0,19.5,0.4,19.6-17.8l0.2-30.2
		C110.6,26.2,113.8,7.9,75.5,7.7L75.5,7.7L75.5,7.7z M56.5,18.1c3.4,0,6.2,2.7,6.2,6c0,3.3-2.8,6-6.2,6c-3.4,0-6.2-2.7-6.2-6
		C50.2,20.8,53.1,18.1,56.5,18.1L56.5,18.1L56.5,18.1z"/>
</g>
<g id="contorno">
	<path id="contorno1_2_" class="st1" d="M75,7.7C38.4,7.5,40.6,22.8,40.6,22.8l-0.1,15.9l34.9,0.2l0,4.7l-48.7-0.3
		c0,0-23.4-2.7-23.6,32.9c-0.2,35.5,20.2,34.4,20.2,34.4l12.2,0.1l0.1-16.5c0,0-0.6-19.7,20.2-19.5l34.6,0.2c0,0,19.5,0.4,19.6-18
		l0.2-30.4C110.1,26.4,113.2,8,75,7.7L75,7.7L75,7.7z M57.3,18.7c3.6,0,6.4,2.8,6.4,6.3c0,3.5-2.9,6.2-6.5,6.2s-6.4-2.8-6.4-6.3
		C50.7,21.5,53.7,18.7,57.3,18.7L57.3,18.7L57.3,18.7z"/>
	<path id="contorno1_1_" class="st1" d="M74,146c36.4,0,34.1-15.5,34.1-15.5v-16.1H73.4v-4.8h48.5c0,0,23.3,2.6,23.3-33.4
		c0-35.9-20.3-34.7-20.3-34.7h-12.2v16.7c0,0,0.7,19.9-20,19.9H58.3c0,0-19.4-0.3-19.4,18.3v30.8C38.9,127.3,35.9,146,74,146L74,146
		L74,146z M93.1,135.2c-3.4,0-6.2-2.7-6.2-6.1s2.8-6.1,6.2-6.1c3.4,0,6.2,2.7,6.2,6.1C99.5,132.5,96.6,135.2,93.1,135.2L93.1,135.2
		L93.1,135.2z"/>
</g>
<g id="logo-phython">
</g>
</svg>
